<svg width="44" height="44" viewBox="0 0 44 44" fill="none" xmlns="http://www.w3.org/2000/svg">
<rect width="44" height="44" rx="22" fill="white" fill-opacity="0.75"/>
<path d="M12.95 22.9999L29.1323 22.9999L23.21 30.7849C23.1743 30.8318 23.146 30.8876 23.1267 30.9489C23.1074 31.0102 23.0974 31.076 23.0974 31.1424C23.0974 31.2088 23.1074 31.2745 23.1267 31.3358C23.146 31.3972 23.1743 31.4529 23.21 31.4999C23.2457 31.5468 23.288 31.5841 23.3346 31.6095C23.3812 31.6349 23.4312 31.6479 23.4817 31.6479C23.5321 31.6479 23.5821 31.6349 23.6287 31.6095C23.6753 31.5841 23.7177 31.5468 23.7534 31.4999L30.3179 22.8549C30.3358 22.8314 30.3518 22.8054 30.3654 22.7774C30.3718 22.7654 30.3775 22.7529 30.3825 22.7399L30.4015 22.6899L30.4129 22.6399C30.414 22.6257 30.414 22.6115 30.4129 22.5974C30.4226 22.533 30.4226 22.4667 30.4129 22.4024C30.414 22.3882 30.414 22.374 30.4129 22.3599L30.4015 22.3099L30.3825 22.2599C30.3775 22.2468 30.3718 22.2343 30.3654 22.2224C30.3518 22.1943 30.3358 22.1683 30.3179 22.1449L23.7534 13.4999C23.718 13.4522 23.6757 13.4144 23.6291 13.3886C23.5824 13.3627 23.5323 13.3494 23.4817 13.3494C23.4311 13.3494 23.3809 13.3627 23.3343 13.3886C23.2876 13.4144 23.2454 13.4522 23.21 13.4999C23.1746 13.5463 23.1466 13.6014 23.1275 13.6621C23.1084 13.7228 23.0985 13.7879 23.0985 13.8536C23.0985 13.9193 23.1084 13.9844 23.1275 14.0451C23.1466 14.1058 23.1746 14.1609 23.21 14.2074L29.1323 21.9999L12.95 21.9999C12.8492 21.9999 12.7525 22.0525 12.6813 22.1463C12.61 22.2401 12.57 22.3673 12.57 22.4999C12.57 22.6325 12.61 22.7597 12.6813 22.8534C12.7525 22.9472 12.8492 22.9999 12.95 22.9999Z" fill="black"/>
</svg>
