<svg width="333" height="31" viewBox="0 0 333 31" fill="none" xmlns="http://www.w3.org/2000/svg">
<g clip-path="url(#clip0_1_2173)">
<path opacity="0.07" d="M36 0H4C2.3 0 1 1.3 1 3V21C1 22.7 2.4 24 4 24H36C37.7 24 39 22.7 39 21V3C39 1.3 37.6 0 36 0Z" fill="black"/>
<path d="M36 1C37.1 1 38 1.9 38 3V21C38 22.1 37.1 23 36 23H4C2.9 23 2 22.1 2 21V3C2 1.9 2.9 1 4 1H36Z" fill="#006FCF"/>
<path d="M9.971 10.268L10.745 12.144H9.203L9.971 10.268ZM26.046 10.346H23.069V11.173H25.998V12.412H23.075V13.334H26.052V14.073L28.129 11.828L26.052 9.488L26.046 10.346ZM11.983 8.006H15.978L16.865 9.941L17.687 8H28.057L29.135 9.19L30.25 8H35.013L31.494 11.852L34.977 15.68H30.143L29.065 14.49L27.94 15.68H11.03L10.536 14.49H9.406L8.911 15.68H5L8.286 8H11.716L11.983 8.006ZM20.646 9.084H18.407L16.907 12.62L15.282 9.084H13.06V13.894L11 9.084H9.007L6.625 14.596H8.18L8.674 13.406H11.27L11.764 14.596H14.484V10.661L16.235 14.602H17.425L19.165 10.673V14.603H20.623L20.647 9.083L20.646 9.084ZM29.986 11.852L32.517 9.084H30.695L29.094 10.81L27.546 9.084H21.652V14.602H27.462L29.076 12.864L30.624 14.602H32.499L29.987 11.852H29.986Z" fill="white"/>
</g>
<g clip-path="url(#clip1_1_2173)">
<path opacity="0.07" d="M78 0H46C44.3 0 43 1.3 43 3V21C43 22.7 44.4 24 46 24H78C79.7 24 81 22.7 81 21V3C81 1.3 79.6 0 78 0Z" fill="black"/>
<path d="M78 1C79.1 1 80 1.9 80 3V21C80 22.1 79.1 23 78 23H46C44.9 23 44 22.1 44 21V3C44 1.9 44.9 1 46 1H78Z" fill="white"/>
<path d="M55 12V15.7C55 16 54.8 16 54.5 15.9C52.6 15.1 51.5 12.6 52.2 10.5C52.6 9.4 53.4 8.5 54.5 8.1C54.9 7.9 55 8 55 8.3V12ZM57 12V8.3C57 8 57 8 57.3 8.1C59.4 8.9 60.5 11.4 59.7 13.5C59.3 14.6 58.5 15.5 57.4 15.9C57 16.1 57 16 57 15.7V12ZM64.2 5H56C59.8 5 62.8 8.1 62.8 12C62.8 15.9 59.8 19 56 19H64.2C68 19 71 15.9 71 12C71 8.1 68 5 64.2 5Z" fill="#3086C8"/>
</g>
<g clip-path="url(#clip2_1_2173)">
<path opacity="0.07" d="M120 0H88C86.3 0 85 1.3 85 3V21C85 22.7 86.4 24 88 24H120C121.7 24 123 22.7 123 21V3C123 1.3 121.6 0 120 0Z" fill="black"/>
<path d="M120 1C121.1 1 122 1.9 122 3V21C122 22.1 121.1 23 120 23H88C86.9 23 86 22.1 86 21V3C86 1.9 86.9 1 88 1H120Z" fill="white"/>
<path d="M103.093 11.9762V15.1762H102.075V7.27623H104.766C105.088 7.27077 105.409 7.3291 105.709 7.44786C106.008 7.56661 106.282 7.74346 106.513 7.96823C106.732 8.17262 106.909 8.41818 107.033 8.69087C107.157 8.96355 107.226 9.25802 107.236 9.55743C107.246 9.85685 107.197 10.1553 107.092 10.4358C106.987 10.7164 106.828 10.9734 106.623 11.1922L106.513 11.3082C106.043 11.7552 105.415 11.9982 104.766 11.9822L103.093 11.9762ZM103.093 8.24423V11.0322H104.791C105.168 11.0442 105.532 10.8972 105.796 10.6282C105.985 10.4314 106.112 10.1834 106.161 9.91506C106.21 9.64673 106.179 9.36992 106.071 9.11906C105.964 8.8682 105.786 8.65436 105.558 8.50415C105.331 8.35394 105.064 8.27398 104.791 8.27423L103.093 8.24423ZM109.577 9.59223C110.227 9.56223 110.863 9.78023 111.355 10.2052C111.8 10.6352 112.037 11.2352 112.005 11.8542V15.1882H111.036V14.4222H110.987C110.813 14.7095 110.567 14.9465 110.274 15.1098C109.981 15.2731 109.65 15.357 109.314 15.3532C108.766 15.371 108.231 15.1805 107.818 14.8202C107.622 14.6605 107.465 14.4582 107.359 14.2289C107.253 13.9995 107.2 13.749 107.205 13.4962C107.193 13.2408 107.243 12.9864 107.35 12.754C107.456 12.5216 107.617 12.318 107.818 12.1602C108.311 11.8054 108.909 11.6243 109.516 11.6452C110.033 11.6252 110.546 11.7382 111.006 11.9762V11.7682C111.009 11.5963 110.974 11.4258 110.901 11.2697C110.829 11.1136 110.722 10.976 110.589 10.8672C110.321 10.6239 109.971 10.4922 109.609 10.4992C109.346 10.4968 109.087 10.5613 108.857 10.6868C108.626 10.8122 108.431 10.9944 108.29 11.2162L107.395 10.6522C107.638 10.304 107.966 10.0238 108.348 9.83828C108.73 9.65274 109.153 9.56803 109.577 9.59223ZM108.29 13.5202C108.288 13.6497 108.317 13.7779 108.376 13.8933C108.435 14.0088 108.521 14.108 108.627 14.1822C108.85 14.3582 109.127 14.4512 109.412 14.4452C109.841 14.4442 110.252 14.2752 110.558 13.9732C110.863 13.6872 111.036 13.2882 111.036 12.8702C110.651 12.5965 110.183 12.4644 109.712 12.4962C109.346 12.4818 108.985 12.5848 108.682 12.7902C108.562 12.8706 108.463 12.9791 108.395 13.1064C108.327 13.2337 108.291 13.3758 108.29 13.5202ZM117.576 9.77023L114.186 17.5602H113.138L114.419 14.8322L112.195 9.77023H113.298L114.91 13.6552L116.479 9.77023H117.576Z" fill="#5F6368"/>
<path d="M98.986 11.2838C98.986 10.9758 98.962 10.6678 98.913 10.3638H94.623V12.1108H97.074C97.0241 12.3884 96.9187 12.6531 96.7641 12.889C96.6094 13.125 96.4087 13.3273 96.174 13.4838V14.6178H97.638C98.0832 14.1871 98.4331 13.6678 98.6653 13.0936C98.8975 12.5194 99.0067 11.9028 98.986 11.2838Z" fill="#4285F4"/>
<path d="M94.629 15.7209C95.7353 15.7513 96.8117 15.359 97.639 14.6239L96.173 13.4839C95.8208 13.7098 95.4217 13.8523 95.006 13.9008C94.5904 13.9492 94.1692 13.9022 93.7745 13.7633C93.3798 13.6245 93.0219 13.3975 92.7281 13.0995C92.4343 12.8016 92.2123 12.4406 92.079 12.0439H90.577V13.2139C90.9529 13.967 91.5311 14.6004 92.2468 15.0432C92.9625 15.486 93.7874 15.7207 94.629 15.7209Z" fill="#34A853"/>
<path d="M92.0791 12.05C91.8888 11.4873 91.8888 10.8777 92.0791 10.315V9.14502H90.5771C90.2568 9.77647 90.09 10.4745 90.09 11.1825C90.09 11.8905 90.2568 12.5886 90.5771 13.22L92.0791 12.05Z" fill="#FBBC04"/>
<path d="M94.629 8.44019C95.276 8.42837 95.9015 8.6728 96.369 9.12019L97.669 7.82719C96.8401 7.0492 95.7407 6.62485 94.604 6.64419C93.7674 6.64838 92.9483 6.88419 92.2375 7.32547C91.5267 7.76674 90.9519 8.39625 90.577 9.14419L92.079 10.3152C92.2546 9.77527 92.5951 9.304 93.0525 8.96766C93.51 8.63132 94.0613 8.44685 94.629 8.44019Z" fill="#EA4335"/>
</g>
<g clip-path="url(#clip3_1_2173)">
<path fill-rule="evenodd" clip-rule="evenodd" d="M162 0H130C128.3 0 127 1.3 127 3V21C127 22.7 128.4 24 130 24H162C163.7 24 165 22.7 165 21V3C165 1.3 163.6 0 162 0Z" fill="#FFB3C7"/>
<path fill-rule="evenodd" clip-rule="evenodd" d="M162 1C163.1 1 164 1.9 164 3V21C164 22.1 163.1 23 162 23H130C128.9 23 128 22.1 128 21V3C128 1.9 128.9 1 130 1H162Z" fill="#FFB3C7"/>
<path d="M161.117 13.184C160.63 13.184 160.235 13.584 160.235 14.076C160.235 14.569 160.63 14.969 161.117 14.969C161.605 14.969 162 14.569 162 14.076C162.001 13.8407 161.909 13.6145 161.743 13.4473C161.578 13.28 161.352 13.1853 161.117 13.184ZM158.214 12.494C158.214 11.818 157.644 11.271 156.94 11.271C156.236 11.271 155.666 11.818 155.666 12.493C155.666 13.168 156.236 13.716 156.94 13.716C157.644 13.716 158.214 13.168 158.214 12.493V12.494ZM158.219 10.118H159.625V14.868H158.219V14.565C157.809 14.8486 157.323 15.0003 156.825 15C155.456 15 154.347 13.878 154.347 12.493C154.347 11.109 155.457 9.987 156.825 9.987C157.342 9.987 157.821 10.147 158.219 10.422V10.118ZM146.966 10.737V10.118H145.526V14.868H146.969V12.651C146.969 11.902 147.771 11.501 148.328 11.501H148.344V10.119C147.774 10.119 147.248 10.366 146.966 10.737ZM143.38 12.493C143.38 11.818 142.81 11.271 142.106 11.271C141.403 11.271 140.832 11.818 140.832 12.493C140.832 13.168 141.402 13.716 142.106 13.716C142.81 13.716 143.38 13.168 143.38 12.493ZM143.385 10.118H144.791V14.868H143.385V14.565C142.975 14.8488 142.488 15.0005 141.99 15C140.622 15 139.512 13.878 139.512 12.493C139.512 11.109 140.622 9.987 141.99 9.987C142.507 9.987 142.987 10.147 143.384 10.422V10.118H143.385ZM151.848 9.99C151.287 9.99 150.755 10.167 150.4 10.653V10.118H149V14.868H150.417V12.372C150.417 11.65 150.896 11.296 151.472 11.296C152.09 11.296 152.445 11.67 152.445 12.362V14.869H153.85V11.848C153.85 10.742 152.98 9.99 151.848 9.99ZM137.465 14.87H138.937V8H137.465V14.868V14.87ZM131 14.87H132.558V8H131V14.87ZM136.45 8C136.454 8.72288 136.315 9.43944 136.042 10.1087C135.769 10.7779 135.366 11.3866 134.857 11.9L137.011 14.87H135.086L132.745 11.642L133.349 11.184C133.842 10.8128 134.241 10.3316 134.515 9.7788C134.788 9.226 134.929 8.61688 134.926 8H136.45Z" fill="#0A0B09"/>
</g>
<g clip-path="url(#clip4_1_2173)">
<path opacity="0.07" d="M204 0H172C170.3 0 169 1.3 169 3V21C169 22.7 170.4 24 172 24H204C205.7 24 207 22.7 207 21V3C207 1.3 205.6 0 204 0Z" fill="black"/>
<path d="M204 1C205.1 1 206 1.9 206 3V21C206 22.1 205.1 23 204 23H172C170.9 23 170 22.1 170 21V3C170 1.9 170.9 1 172 1H204Z" fill="white"/>
<path d="M184 19C187.866 19 191 15.866 191 12C191 8.13401 187.866 5 184 5C180.134 5 177 8.13401 177 12C177 15.866 180.134 19 184 19Z" fill="#EB001B"/>
<path d="M192 19C195.866 19 199 15.866 199 12C199 8.13401 195.866 5 192 5C188.134 5 185 8.13401 185 12C185 15.866 188.134 19 192 19Z" fill="#F79E1B"/>
<path d="M191 11.9998C191 9.5998 189.8 7.4998 188 6.2998C186.2 7.5998 185 9.6998 185 11.9998C185 14.2998 186.2 16.4998 188 17.6998C189.8 16.4998 191 14.3998 191 11.9998Z" fill="#FF5F00"/>
</g>
<g clip-path="url(#clip5_1_2173)">
<path opacity="0.07" d="M246 0H214C212.3 0 211 1.3 211 3V21C211 22.7 212.4 24 214 24H246C247.7 24 249 22.7 249 21V3C249 1.3 247.6 0 246 0Z" fill="black"/>
<path d="M246 1C247.1 1 248 1.9 248 3V21C248 22.1 247.1 23 246 23H214C212.9 23 212 22.1 212 21V3C212 1.9 212.9 1 214 1H246Z" fill="#5A31F4"/>
<path d="M232.382 9.71305C232.382 11.3811 231.205 12.5711 229.561 12.5711H228.012C227.986 12.5714 227.961 12.5792 227.94 12.5934C227.919 12.6076 227.902 12.6276 227.892 12.6511C227.885 12.6666 227.882 12.6832 227.882 12.7001V14.8921C227.882 14.9091 227.879 14.9259 227.872 14.9417C227.866 14.9574 227.856 14.9716 227.844 14.9836C227.832 14.9956 227.817 15.0051 227.802 15.0115C227.786 15.0179 227.769 15.0212 227.752 15.0211H226.668C226.634 15.0211 226.6 15.0074 226.576 14.983C226.552 14.9586 226.538 14.9255 226.538 14.8911V6.98605C226.538 6.9603 226.545 6.93503 226.559 6.91359C226.574 6.89216 226.594 6.87558 226.618 6.86605C226.634 6.85943 226.651 6.85603 226.668 6.85605H229.568C231.205 6.85605 232.382 8.04605 232.382 9.71405V9.71305ZM231.03 9.71305C231.03 8.75505 230.372 8.05505 229.48 8.05505H228.012C227.995 8.05505 227.978 8.05841 227.962 8.06495C227.946 8.07148 227.932 8.08106 227.92 8.09313C227.908 8.1052 227.898 8.11953 227.892 8.1353C227.885 8.15108 227.882 8.16798 227.882 8.18505V11.2351C227.882 11.2522 227.885 11.2691 227.892 11.2849C227.898 11.3007 227.908 11.3151 227.92 11.3271C227.932 11.3392 227.946 11.3488 227.962 11.3553C227.978 11.3618 227.995 11.3651 228.012 11.3651H229.48C230.372 11.3701 231.03 10.6701 231.03 9.71305ZM232.704 13.5041C232.693 13.2479 232.746 12.9929 232.859 12.7627C232.972 12.5326 233.141 12.3346 233.351 12.1871C233.774 11.8711 234.435 11.7071 235.406 11.6731L236.439 11.6371V11.3341C236.439 10.7271 236.029 10.4711 235.371 10.4711C234.713 10.4711 234.296 10.7021 234.201 11.0811C234.193 11.1077 234.176 11.1309 234.154 11.1472C234.131 11.1634 234.104 11.1718 234.076 11.1711H233.054C233.026 11.1714 232.998 11.1626 232.976 11.1461C232.953 11.1295 232.936 11.106 232.928 11.0791C232.923 11.0612 232.921 11.0425 232.924 11.0241C233.076 10.1261 233.828 9.44405 235.418 9.44405C237.11 9.44405 237.721 10.2271 237.721 11.7201V14.8921C237.721 14.9092 237.717 14.9262 237.711 14.942C237.704 14.9577 237.694 14.972 237.682 14.984C237.67 14.996 237.655 15.0055 237.639 15.0118C237.623 15.0182 237.606 15.0213 237.589 15.0211H236.559C236.525 15.0211 236.491 15.0074 236.467 14.983C236.443 14.9586 236.429 14.9255 236.429 14.8911V14.6551C236.429 14.6355 236.424 14.6163 236.413 14.6C236.402 14.5837 236.386 14.5712 236.368 14.5641C236.35 14.5569 236.33 14.5552 236.311 14.5592C236.292 14.5631 236.275 14.5724 236.261 14.5861C235.951 14.9201 235.453 15.1611 234.654 15.1611C233.479 15.1611 232.704 14.5541 232.704 13.5041ZM236.439 12.8171V12.5711L235.1 12.6411C234.395 12.6771 233.985 12.9671 233.985 13.4571C233.985 13.9011 234.361 14.1471 235.019 14.1471C235.912 14.1471 236.439 13.6671 236.439 12.8171ZM238.755 17.4171V16.4981C238.755 16.4788 238.76 16.4598 238.768 16.4425C238.777 16.4252 238.789 16.4101 238.804 16.3981C238.819 16.386 238.836 16.3773 238.855 16.3726C238.874 16.3679 238.893 16.3674 238.912 16.3711C239.07 16.4001 239.23 16.4151 239.391 16.4151C239.667 16.4302 239.94 16.3519 240.165 16.193C240.391 16.0341 240.557 15.8037 240.636 15.5391L240.703 15.3281C240.713 15.2996 240.713 15.2685 240.703 15.2401L238.558 9.76905C238.546 9.73903 238.545 9.70543 238.556 9.67489C238.567 9.64435 238.589 9.61908 238.618 9.60405C238.637 9.59398 238.658 9.58883 238.68 9.58905H239.72C239.747 9.58912 239.773 9.59728 239.795 9.61246C239.817 9.62763 239.833 9.64911 239.843 9.67405L241.299 13.5331C241.308 13.559 241.325 13.5814 241.347 13.5972C241.37 13.613 241.397 13.6213 241.424 13.6211C241.451 13.621 241.478 13.6126 241.5 13.5968C241.523 13.5811 241.54 13.5588 241.549 13.5331L242.814 9.68505C242.823 9.65852 242.839 9.63545 242.862 9.61925C242.885 9.60304 242.912 9.59456 242.94 9.59505H244.016C244.048 9.59524 244.079 9.60708 244.104 9.62839C244.128 9.64971 244.144 9.67906 244.148 9.71105C244.15 9.73239 244.148 9.754 244.14 9.77405L241.845 15.8501C241.317 17.2631 240.412 17.6231 239.415 17.6231C239.226 17.6283 239.037 17.606 238.854 17.5571C238.823 17.5495 238.796 17.5313 238.778 17.5056C238.76 17.4799 238.751 17.4485 238.754 17.4171H238.755ZM219.57 6.40005C218.205 6.38985 216.888 6.90016 215.887 7.82705C215.844 7.86581 215.818 7.91908 215.812 7.97643C215.807 8.03378 215.823 8.09107 215.858 8.13705L216.476 8.97605C216.496 9.00434 216.522 9.02787 216.552 9.04498C216.582 9.06208 216.616 9.07233 216.65 9.075C216.685 9.07768 216.72 9.07271 216.752 9.06044C216.785 9.04818 216.814 9.02893 216.838 9.00405C217.198 8.64665 217.625 8.36444 218.095 8.17387C218.565 7.9833 219.069 7.88818 219.576 7.89405C221.696 7.89405 222.803 9.47805 222.803 11.0441C222.803 12.7441 221.64 13.9421 219.968 13.9651C218.676 13.9651 217.702 13.1151 217.702 11.9911C217.703 11.7068 217.768 11.4264 217.891 11.1704C218.014 10.9143 218.193 10.6891 218.415 10.5111C218.462 10.4724 218.492 10.4166 218.498 10.3559C218.504 10.2952 218.486 10.2345 218.448 10.1871L217.798 9.37205C217.778 9.34699 217.754 9.32617 217.726 9.31082C217.698 9.29547 217.667 9.28592 217.636 9.28275C217.604 9.27957 217.572 9.28283 217.542 9.29234C217.511 9.30184 217.483 9.31739 217.459 9.33805C217.061 9.65739 216.739 10.0615 216.517 10.5211C216.296 10.9795 216.181 11.482 216.18 11.9911C216.18 13.9261 217.835 15.4431 219.955 15.4551H219.985C222.502 15.4231 224.322 13.5711 224.322 11.0401C224.322 8.79305 222.655 6.40005 219.57 6.40005Z" fill="white"/>
</g>
<g clip-path="url(#clip6_1_2173)">
<path d="M288 0H256C254.343 0 253 1.34315 253 3V21C253 22.6569 254.343 24 256 24H288C289.657 24 291 22.6569 291 21V3C291 1.34315 289.657 0 288 0Z" fill="black" fill-opacity="0.07"/>
<path fill-rule="evenodd" clip-rule="evenodd" d="M288 1C289.1 1 290 1.9 290 3V21C290 22.1 289.1 23 288 23H256C254.9 23 254 22.1 254 21V3C254 1.9 254.9 1 256 1H288Z" fill="#3D95CE"/>
<path d="M277.675 8.3599C277.675 11.4239 275.118 15.4049 273.042 18.1999H268.302L266.4 6.5699L270.551 6.1679L271.556 14.4429C272.496 12.8769 273.655 10.4179 273.655 8.7409C273.655 7.8229 273.501 7.1979 273.261 6.6829L277.041 5.8999C277.478 6.6379 277.675 7.3989 277.675 8.3599Z" fill="white"/>
</g>
<g clip-path="url(#clip7_1_2173)">
<path opacity="0.07" d="M330 0H298C296.3 0 295 1.3 295 3V21C295 22.7 296.4 24 298 24H330C331.7 24 333 22.7 333 21V3C333 1.3 331.6 0 330 0Z" fill="black"/>
<path d="M330 1C331.1 1 332 1.9 332 3V21C332 22.1 331.1 23 330 23H298C296.9 23 296 22.1 296 21V3C296 1.9 296.9 1 298 1H330Z" fill="white"/>
<path d="M323.3 10.1H323C322.6 11.1 322.3 11.6 322 13.1H323.9C323.6 11.6 323.6 10.9 323.3 10.1ZM326.2 16H324.5C324.4 16 324.4 16 324.3 15.9L324.1 15L324 14.8H321.6C321.5 14.8 321.4 14.8 321.4 15L321.1 15.9C321.1 16 321 16 321 16H318.9L319.1 15.5L322 8.7C322 8.2 322.3 8 322.8 8H324.3C324.4 8 324.5 8 324.5 8.2L325.9 14.7C326 15.1 326.1 15.4 326.1 15.8C326.2 15.9 326.2 15.9 326.2 16ZM312.8 15.7L313.2 13.9C313.3 13.9 313.4 14 313.4 14C314.1 14.3 314.8 14.5 315.5 14.4C315.7 14.4 316 14.3 316.2 14.2C316.7 14 316.7 13.5 316.3 13.1C316.1 12.9 315.8 12.8 315.5 12.6C315.1 12.4 314.7 12.2 314.4 11.9C313.2 10.9 313.6 9.5 314.3 8.8C314.9 8.4 315.2 8 316 8C317.2 8 318.5 8 319.1 8.2H319.2C319.1 8.8 319 9.3 318.8 9.9C318.3 9.7 317.8 9.5 317.3 9.5C317 9.5 316.7 9.5 316.4 9.6C316.2 9.6 316.1 9.7 316 9.8C315.8 10 315.8 10.3 316 10.5L316.5 10.9C316.9 11.1 317.3 11.3 317.6 11.5C318.1 11.8 318.6 12.3 318.7 12.9C318.9 13.8 318.6 14.6 317.8 15.2C317.3 15.6 317.1 15.8 316.4 15.8C315 15.8 313.9 15.9 313 15.6C312.9 15.8 312.9 15.8 312.8 15.7ZM309.3 16C309.4 15.3 309.4 15.3 309.5 15C310 12.8 310.5 10.5 310.9 8.3C311 8.1 311 8 311.2 8H313C312.8 9.2 312.6 10.1 312.3 11.2C312 12.7 311.7 14.2 311.3 15.7C311.3 15.9 311.2 15.9 311 15.9L309.3 16ZM300 8.2C300 8.1 300.2 8 300.3 8H303.7C304.2 8 304.6 8.3 304.7 8.8L305.6 13.2C305.6 13.3 305.6 13.3 305.7 13.4C305.7 13.3 305.8 13.3 305.8 13.3L307.9 8.2C307.8 8.1 307.9 8 308 8H310.1C310.1 8.1 310.1 8.1 310 8.2L306.9 15.5C306.8 15.7 306.8 15.8 306.7 15.9C306.6 16 306.4 15.9 306.2 15.9H304.7C304.6 15.9 304.5 15.9 304.5 15.7L302.9 9.5C302.7 9.3 302.4 9 302 8.9C301.4 8.6 300.3 8.4 300.1 8.4L300 8.2Z" fill="#142688"/>
</g>
<defs>
<clipPath id="clip0_1_2173">
<rect width="38" height="24" fill="white" transform="translate(1)"/>
</clipPath>
<clipPath id="clip1_1_2173">
<rect width="38" height="24" fill="white" transform="translate(43)"/>
</clipPath>
<clipPath id="clip2_1_2173">
<rect width="38" height="24" fill="white" transform="translate(85)"/>
</clipPath>
<clipPath id="clip3_1_2173">
<rect width="38" height="24" fill="white" transform="translate(127)"/>
</clipPath>
<clipPath id="clip4_1_2173">
<rect width="38" height="24" fill="white" transform="translate(169)"/>
</clipPath>
<clipPath id="clip5_1_2173">
<rect width="38" height="24" fill="white" transform="translate(211)"/>
</clipPath>
<clipPath id="clip6_1_2173">
<rect width="38" height="24" fill="white" transform="translate(253)"/>
</clipPath>
<clipPath id="clip7_1_2173">
<rect width="38" height="24" fill="white" transform="translate(295)"/>
</clipPath>
</defs>
</svg>
