<svg width="44" height="44" viewBox="0 0 44 44" fill="none" xmlns="http://www.w3.org/2000/svg">
<rect width="44" height="44" rx="22" fill="white" fill-opacity="0.75"/>
<path d="M30.05 22.0001H13.8677L19.79 14.2151C19.8257 14.1682 19.854 14.1124 19.8733 14.0511C19.8926 13.9898 19.9025 13.924 19.9025 13.8576C19.9025 13.7912 19.8926 13.7255 19.8733 13.6642C19.854 13.6028 19.8257 13.5471 19.79 13.5001C19.7543 13.4532 19.712 13.4159 19.6653 13.3905C19.6187 13.3651 19.5688 13.3521 19.5183 13.3521C19.4678 13.3521 19.4179 13.3651 19.3713 13.3905C19.3246 13.4159 19.2823 13.4532 19.2466 13.5001L12.6821 22.1451C12.6641 22.1686 12.6482 22.1946 12.6346 22.2226C12.6282 22.2346 12.6225 22.2471 12.6175 22.2601L12.5985 22.3101L12.5871 22.3601C12.586 22.3743 12.586 22.3885 12.5871 22.4026C12.5774 22.467 12.5774 22.5333 12.5871 22.5976C12.586 22.6118 12.586 22.626 12.5871 22.6401L12.5985 22.6901L12.6175 22.7401C12.6225 22.7532 12.6282 22.7657 12.6346 22.7776C12.6482 22.8057 12.6641 22.8317 12.6821 22.8551L19.2466 31.5001C19.282 31.5478 19.3243 31.5856 19.3709 31.6114C19.4176 31.6373 19.4677 31.6506 19.5183 31.6506C19.5689 31.6506 19.619 31.6373 19.6657 31.6114C19.7123 31.5856 19.7546 31.5478 19.79 31.5001C19.8253 31.4537 19.8534 31.3986 19.8725 31.3379C19.8916 31.2772 19.9015 31.2121 19.9015 31.1464C19.9015 31.0807 19.8916 31.0156 19.8725 30.9549C19.8534 30.8942 19.8253 30.8391 19.79 30.7926L13.8677 23.0001H30.05C30.1508 23.0001 30.2474 22.9475 30.3187 22.8537C30.39 22.7599 30.43 22.6327 30.43 22.5001C30.43 22.3675 30.39 22.2403 30.3187 22.1466C30.2474 22.0528 30.1508 22.0001 30.05 22.0001Z" fill="black"/>
</svg>
